<?xml version="1.0" standalone="no"?>
<!DOCTYPE svg PUBLIC "-//W3C//DTD SVG 20010904//EN"
 "http://www.w3.org/TR/2001/REC-SVG-20010904/DTD/svg10.dtd">
<svg version="1.0" xmlns="http://www.w3.org/2000/svg"
 width="80.000000pt" height="80.000000pt" viewBox="0 0 80.000000 80.000000"
 preserveAspectRatio="xMidYMid meet">
<metadata>
Created by potrace 1.16, written by Peter Selinger 2001-2019
</metadata>
<g transform="translate(0.000000,80.000000) scale(0.100000,-0.100000)"
fill="#000000" stroke="none">
<path d="M10 410 l0 -80 29 0 c36 0 83 17 93 33 4 7 8 28 8 47 0 19 -4 40 -8
47 -10 16 -57 33 -93 33 l-29 0 0 -80z m110 28 c13 -25 13 -31 0 -55 -12 -22
-24 -29 -53 -31 l-37 -3 0 61 0 61 37 -3 c29 -2 41 -9 53 -30z"/>
<path d="M180 410 l0 -80 50 0 c28 0 50 5 50 10 0 6 -18 10 -40 10 -36 0 -40
3 -40 25 0 23 4 25 40 25 22 0 40 5 40 10 0 6 -18 10 -40 10 -36 0 -40 3 -40
25 0 23 4 25 40 25 22 0 40 5 40 10 0 6 -22 10 -50 10 l-50 0 0 -80z"/>
<path d="M320 410 c0 -47 4 -80 10 -80 6 0 10 30 11 68 l1 67 24 -53 c13 -29
28 -51 33 -47 5 3 15 22 21 43 21 63 30 60 30 -11 0 -38 4 -67 10 -67 6 0 10
34 10 81 0 69 -2 80 -16 77 -10 -2 -26 -26 -37 -57 l-21 -55 -14 35 c-8 19
-18 44 -23 57 -5 12 -15 22 -24 22 -12 0 -15 -15 -15 -80z"/>
<path d="M510 430 c0 -65 21 -100 60 -100 39 0 60 35 60 100 0 82 -18 76 -22
-7 l-3 -68 -35 0 -35 0 -3 68 c-4 83 -22 89 -22 7z"/>
<path d="M679 473 c5 -10 16 -27 24 -38 14 -18 12 -23 -15 -62 -16 -24 -25
-43 -19 -43 5 0 19 16 31 35 12 19 23 35 25 35 2 0 13 -16 25 -35 12 -19 26
-35 31 -35 5 0 -2 17 -16 37 -30 45 -30 51 -5 83 31 39 23 49 -9 11 l-28 -34
-19 31 c-19 33 -42 46 -25 15z"/>
</g>
</svg>
