<?xml version="1.0" standalone="no"?>
<!DOCTYPE svg PUBLIC "-//W3C//DTD SVG 20010904//EN"
 "http://www.w3.org/TR/2001/REC-SVG-20010904/DTD/svg10.dtd">
<svg version="1.0" xmlns="http://www.w3.org/2000/svg"
 width="80.000000pt" height="80.000000pt" viewBox="0 0 80.000000 80.000000"
 preserveAspectRatio="xMidYMid meet">
<metadata>
Created by potrace 1.16, written by Peter Selinger 2001-2019
</metadata>
<g transform="translate(0.000000,80.000000) scale(0.100000,-0.100000)"
fill="#000000" stroke="none">
<path d="M100 411 c0 -92 3 -111 15 -111 12 0 15 17 16 93 l0 92 28 -70 c15
-40 33 -70 41 -70 8 0 25 31 41 75 l28 75 0 -97 c1 -80 4 -98 16 -98 12 0 15
19 15 111 0 107 -1 110 -21 107 -15 -2 -27 -17 -40 -53 -42 -110 -38 -109 -69
-25 -21 58 -32 76 -49 78 -20 3 -21 0 -21 -107z"/>
<path d="M360 436 c0 -105 16 -131 80 -131 64 0 80 26 80 131 0 49 -4 84 -10
84 -6 0 -10 -31 -10 -73 0 -86 -16 -117 -60 -117 -44 0 -60 31 -60 117 0 42
-4 73 -10 73 -6 0 -10 -35 -10 -84z"/>
<path d="M580 513 c0 -5 13 -28 29 -52 17 -25 27 -49 24 -55 -4 -6 -20 -30
-36 -54 -31 -47 -28 -74 4 -30 11 14 28 36 37 49 l18 22 30 -47 c16 -25 35
-46 42 -46 15 0 13 4 -30 67 -15 23 -28 44 -28 48 0 4 14 27 31 51 32 47 31
78 -1 34 -52 -70 -44 -68 -75 -22 -25 38 -45 53 -45 35z"/>
</g>
</svg>
